HIERARCHY
ROOT root
{
	OFFSET 0.000000 0.000000 0.000000
	CHANNELS 6 Xposition Yposition Zposition Zrotation Yrotation Xrotation
	JOINT lhip
	{
		OFFSET 0.058581 -0.082280 -0.017664
		CHANNELS 3 Zrotation Yrotation Xrotation
		JOINT lknee
		{
			OFFSET 0.043451 -0.386469 0.008037
			CHANNELS 3 Zrotation Yrotation Xrotation
			JOINT lankle
			{
				OFFSET -0.014790 -0.426874 -0.037428
				CHANNELS 3 Zrotation Yrotation Xrotation
				JOINT ltoe
				{
					OFFSET 0.041054 -0.060286 0.122042
					CHANNELS 3 Zrotation Yrotation Xrotation
					End Site
					{
						OFFSET 0.000000 0.000000 0.000000
					}
				}
			}
		}
	}
	JOINT rhip
	{
		OFFSET -0.060310 -0.090513 -0.013543
		CHANNELS 3 Zrotation Yrotation Xrotation
		JOINT rknee
		{
			OFFSET -0.043257 -0.383688 -0.004843
			CHANNELS 3 Zrotation Yrotation Xrotation
			JOINT rankle
			{
				OFFSET 0.019056 -0.420046 -0.034562
				CHANNELS 3 Zrotation Yrotation Xrotation
				JOINT rtoe
				{
					OFFSET -0.034840 -0.062106 0.130323
					CHANNELS 3 Zrotation Yrotation Xrotation
					End Site
					{
						OFFSET 0.000000 0.000000 0.000000
					}
				}
			}
		}
	}
	JOINT lowerback
	{
		OFFSET 0.004439 0.124404 -0.038385
		CHANNELS 3 Zrotation Yrotation Xrotation
		JOINT upperback
		{
			OFFSET 0.004488 0.137956 0.026820
			CHANNELS 3 Zrotation Yrotation Xrotation
			JOINT chest
			{
				OFFSET -0.002265 0.056032 0.002855
				CHANNELS 3 Zrotation Yrotation Xrotation
				JOINT lowerneck
				{
					OFFSET -0.013390 0.211636 -0.033468
					CHANNELS 3 Zrotation Yrotation Xrotation
					JOINT upperneck
					{
						OFFSET 0.010113 0.088937 0.050410
						CHANNELS 3 Zrotation Yrotation Xrotation
						End Site
						{
							OFFSET 0.000000 0.000000 0.000000
						}
					}
				}
				JOINT lclavicle
				{
					OFFSET 0.071702 0.114000 -0.018898
					CHANNELS 3 Zrotation Yrotation Xrotation
					JOINT lshoulder
					{
						OFFSET 0.122921 0.045205 -0.019046
						CHANNELS 3 Zrotation Yrotation Xrotation
						JOINT lelbow
						{
							OFFSET 0.255332 -0.015649 -0.022946
							CHANNELS 3 Zrotation Yrotation Xrotation
							JOINT lwrist
							{
								OFFSET 0.265709 0.012698 -0.007375
								CHANNELS 3 Zrotation Yrotation Xrotation
								End Site
								{
									OFFSET 0.000000 0.000000 0.000000
								}
							}
						}
					}
				}
				JOINT rclavicle
				{
					OFFSET -0.082954 0.112472 -0.023707
					CHANNELS 3 Zrotation Yrotation Xrotation
					JOINT rshoulder
					{
						OFFSET -0.113228 0.046853 -0.008472
						CHANNELS 3 Zrotation Yrotation Xrotation
						JOINT relbow
						{
							OFFSET -0.260127 -0.014369 -0.031269
							CHANNELS 3 Zrotation Yrotation Xrotation
							JOINT rwrist
							{
								OFFSET -0.269108 0.006794 -0.006027
								CHANNELS 3 Zrotation Yrotation Xrotation
								End Site
								{
									OFFSET 0.000000 0.000000 0.000000
								}
							}
						}
					}
				}
			}
		}
	}
}
MOTION
Frames: 13
Frame Time: 0.033333
-0.095492 0.567309 0.923374 -1.783845 -4.221483 93.676563 10.385659 6.786866 -31.526935 -8.820162 5.988850 42.234334 2.473455 5.067043 -23.368759 0.000000 -0.000000 0.000000 -16.603277 -8.385832 -34.150342 -1.182375 -4.982052 57.363110 6.347825 -3.755975 -24.944123 0.000000 -0.000000 0.000000 -0.328523 1.968637 37.537073 -0.765504 -0.084266 -3.120505 -1.917663 0.000679 -1.869507 -8.796517 16.188359 -16.686134 -6.889943 4.897814 16.383716 -32.633809 -9.960032 0.952292 -38.060458 -13.436178 10.170083 24.024983 -71.713416 -9.229366 3.580586 -12.028897 -10.039875 37.955579 12.549186 4.224654 41.629066 13.049569 10.889210 -59.318002 52.536896 -59.675626 4.237395 12.443823 -19.907064 
-0.100134 0.568219 0.923317 -1.432710 -4.467873 93.616762 10.503907 6.691553 -31.397293 -9.125946 5.807250 41.797244 2.355290 5.002212 -23.043085 0.000000 -0.000000 0.000000 -16.605475 -8.265290 -34.204377 -1.138289 -5.103652 57.742954 6.201361 -4.179641 -25.180215 0.000000 -0.000000 0.000000 -0.429065 1.926767 37.495350 -0.835481 0.038325 -2.962072 -1.997417 -0.007238 -1.794014 -8.717690 16.618798 -16.406629 -7.069002 5.217846 17.060987 -32.740334 -9.880208 0.949077 -37.828926 -13.421666 10.224212 24.851807 -71.967246 -10.053830 2.290162 -12.158838 -10.990529 38.026672 12.554267 4.315860 41.592461 13.239377 11.014568 -59.269374 52.389529 -59.710407 4.320763 12.467550 -19.882835 
-0.104879 0.567749 0.923271 -1.150147 -4.703034 93.385112 10.468050 6.920650 -31.015159 -9.208805 5.444442 41.400639 2.200650 4.733110 -22.812830 0.000000 -0.000000 0.000000 -16.564474 -8.307830 -34.004081 -1.339482 -5.232407 58.139883 6.128593 -4.100124 -25.490808 0.000000 -0.000000 0.000000 -0.436193 2.032003 37.755709 -0.971775 0.115536 -3.021397 -2.014182 -0.080393 -1.802658 -8.805698 16.899479 -16.093087 -7.032235 5.610947 17.348505 -32.801116 -9.856074 0.838458 -37.887694 -13.469058 10.046686 25.431635 -71.807902 -10.966907 3.533721 -12.032641 -10.761858 38.037749 12.495707 4.201391 41.719537 13.074593 11.030341 -59.418667 52.519680 -59.858719 4.316029 12.259072 -19.883328 
-0.109552 0.568395 0.923324 -0.593385 -4.883385 93.406855 10.467262 6.820988 -31.102684 -9.261091 5.122324 41.054905 2.084993 4.560978 -22.343197 0.000000 -0.000000 0.000000 -16.470400 -8.479791 -34.061596 -1.311544 -5.385094 58.467008 6.042113 -4.419197 -25.747950 0.000000 -0.000000 0.000000 -0.466127 1.814193 37.750905 -1.040832 0.100460 -3.097360 -2.052395 -0.044947 -1.754025 -8.793883 17.218552 -15.891875 -6.966958 6.111277 17.925817 -32.881567 -9.829180 0.801276 -37.890744 -13.430707 10.033919 26.172325 -71.832313 -11.665797 3.616444 -11.841133 -10.903017 38.134452 12.513862 4.325595 41.587165 13.225103 10.964911 -59.504413 52.575589 -59.969851 4.211974 12.074253 -19.910260 
-0.114719 0.569633 0.923043 -0.092837 -5.012939 93.569898 10.639340 6.640501 -31.345725 -9.350478 4.950383 40.692988 1.988664 4.462081 -21.812498 0.000000 -0.000000 0.000000 -16.306075 -8.503511 -34.385590 -1.417329 -5.719874 58.894379 5.870652 -4.714578 -26.038075 0.000000 -0.000000 0.000000 -0.519696 1.795330 37.646883 -0.993740 0.119492 -3.225949 -2.052710 -0.032640 -1.660324 -8.787196 17.614021 -15.654440 -7.002353 6.525669 18.333727 -32.770983 -9.768750 0.822860 -38.243147 -13.574701 10.086458 27.127819 -71.800057 -12.525382 3.820828 -11.636265 -11.053541 37.987032 12.429233 4.368284 41.802611 13.330374 11.030237 -59.532807 52.565894 -59.872956 4.282796 12.034083 -20.247777 
-0.119498 0.569769 0.923499 0.196076 -5.240552 93.411927 10.664673 6.711116 -30.975280 -9.482939 4.647213 40.115789 1.766673 4.264114 -21.530553 0.000000 -0.000000 0.000000 -16.295929 -8.575947 -34.235204 -1.530228 -5.999655 59.072929 5.740626 -4.777203 -26.172114 0.000000 -0.000000 0.000000 -0.560078 1.875720 37.783754 -1.092074 0.125687 -3.089014 -2.070406 -0.043967 -1.770173 -8.836236 17.973450 -15.281461 -6.917896 6.817360 18.527831 -32.914499 -9.791453 0.777261 -38.250826 -13.575035 10.119268 27.704511 -71.787993 -13.023457 3.824830 -11.597795 -11.041120 38.130861 12.466800 4.336189 41.660762 13.275040 11.023702 -59.304503 52.595716 -59.770941 4.259816 12.106416 -20.583031 
-0.124163 0.570032 0.923639 0.447306 -5.430303 93.346859 10.756572 6.632588 -30.704372 -9.468619 4.542510 39.566697 1.616633 4.064564 -21.293877 0.000000 -0.000000 0.000000 -16.249029 -8.661205 -34.198462 -1.573502 -6.201690 59.313895 5.599295 -4.784740 -26.363094 0.000000 -0.000000 0.000000 -0.556995 1.835106 37.784423 -1.208426 0.171313 -2.952083 -2.125480 -0.080992 -1.827479 -8.920623 18.352479 -15.100841 -6.967064 7.341489 18.744462 -32.982390 -9.809784 0.854922 -38.336634 -13.545659 10.073557 28.400160 -71.789020 -13.748582 3.878118 -11.628579 -11.071579 38.174866 12.500341 4.396664 41.724512 13.372723 11.040248 -59.444303 52.591550 -59.924613 4.196350 12.125042 -20.643754 
-0.128949 0.570620 0.923997 0.729469 -5.480555 93.310523 10.894652 6.715986 -30.558491 -9.431328 4.277319 39.137730 1.439762 3.843370 -20.924538 0.000000 -0.000000 0.000000 -16.042978 -8.704628 -34.191770 -1.643288 -6.458191 59.502274 5.434994 -4.781047 -26.497564 0.000000 -0.000000 0.000000 -0.564224 1.738753 37.855998 -1.274952 0.207437 -2.989370 -2.125053 -0.004742 -1.751616 -8.916192 18.671937 -15.089261 -6.885059 7.730721 19.091586 -32.957077 -9.805353 0.815270 -38.615425 -13.514804 10.088047 28.987585 -71.863505 -14.137891 4.035714 -11.623781 -11.019571 38.076043 12.537124 4.361536 41.894461 13.500092 10.971541 -59.371925 52.608189 -59.875119 4.337375 12.103206 -20.887051 
-0.133801 0.571174 0.924235 0.881526 -5.581354 93.411182 11.095097 6.767587 -30.503895 -9.495041 4.180716 38.694983 1.335815 3.731674 -20.494025 0.000000 -0.000000 0.000000 -15.914452 -8.697106 -34.355342 -1.716444 -6.793825 59.642690 5.181067 -4.837031 -26.595177 0.000000 -0.000000 0.000000 -0.731081 1.846318 37.748051 -1.190098 0.241128 -2.996600 -2.070416 -0.025783 -1.720927 -8.904276 19.073926 -14.922101 -6.989335 8.143520 19.289603 -32.990480 -9.701387 0.694626 -38.896936 -13.479600 10.271815 29.670368 -71.796862 -14.705271 4.124922 -11.467703 -11.093732 38.085245 12.414510 4.360172 41.959358 13.668998 11.103057 -59.420706 52.646183 -59.825938 4.408340 12.139560 -20.996791 
-0.139093 0.571085 0.925098 1.095542 -5.740102 93.278938 11.136029 6.795651 -29.945874 -9.480011 3.746875 37.763424 1.176436 3.611273 -20.205357 0.000000 -0.000000 0.000000 -15.876760 -8.904213 -34.085787 -1.627133 -7.075870 59.552507 5.127723 -4.631579 -26.547923 0.000000 -0.000000 0.000000 -0.613656 1.734305 37.663626 -1.369620 0.225707 -2.593797 -2.125398 -0.073227 -1.828580 -8.965849 19.385318 -14.591001 -7.028544 8.659900 19.054763 -33.104392 -9.709641 0.684453 -39.261001 -13.601802 10.299869 30.454684 -71.675754 -15.535498 4.690098 -11.494243 -11.012304 38.011548 12.539923 4.389487 41.969555 13.780727 11.149209 -59.183006 52.707640 -59.267369 4.362839 12.587298 -20.434840 
-0.142394 0.571708 0.925315 1.185065 -5.782548 93.417082 11.255763 6.778926 -29.949799 -9.341671 3.741604 37.363495 1.108575 3.443810 -19.965933 0.000000 -0.000000 0.000000 -15.817589 -8.842712 -34.246414 -1.581304 -7.381943 59.610442 5.080591 -4.663054 -26.611273 0.000000 -0.000000 0.000000 -0.679274 1.663090 37.544733 -1.402368 0.276180 -2.712418 -2.150871 -0.021748 -1.784222 -8.784525 19.629603 -14.423096 -6.895511 8.797426 19.489577 -33.096998 -9.610980 0.667366 -39.558638 -13.657939 10.446555 30.688198 -71.673367 -15.755183 4.571869 -11.488533 -11.081747 37.993607 12.463359 4.427996 42.050434 13.942638 11.147859 -59.236471 52.682143 -59.433087 4.197941 12.442680 -20.539134 
-0.145219 0.572138 0.925905 1.279175 -5.769318 93.521320 11.469650 6.670080 -29.907279 -9.300474 3.811224 37.019021 1.010433 3.355604 -19.747829 0.000000 -0.000000 0.000000 -15.699079 -8.832992 -34.339153 -1.517898 -7.578957 59.611243 5.083811 -4.628806 -26.533014 0.000000 -0.000000 0.000000 -0.640558 1.589486 37.672714 -1.413661 0.336236 -3.050943 -2.196197 -0.038253 -1.765004 -8.681823 19.808850 -14.344414 -6.782072 9.005514 19.915349 -33.075676 -9.353896 0.627172 -39.918357 -13.691272 10.550648 30.469259 -71.824324 -15.486405 4.469162 -11.539800 -10.929716 37.892430 12.264161 4.199057 42.181039 13.851787 11.340328 -58.975462 52.865087 -59.148067 4.274556 12.460090 -20.700194 
-0.146910 0.572020 0.926616 1.360052 -5.872666 93.367203 11.416944 6.633385 -29.489987 -9.336840 3.612880 36.502278 1.066884 3.327324 -19.632641 0.000000 -0.000000 0.000000 -15.815388 -8.867994 -34.107284 -1.443256 -7.767724 59.536369 5.090005 -4.556959 -26.545039 0.000000 -0.000000 0.000000 -0.581945 1.445475 37.829025 -1.501359 0.254060 -2.958849 -2.240023 -0.042958 -1.790529 -8.696306 19.867553 -14.280062 -6.775933 9.216801 19.770803 -33.085581 -9.363043 0.549632 -40.113119 -13.676133 10.672766 30.546359 -71.878043 -15.443684 4.384808 -11.549720 -11.123922 37.877470 12.345006 4.216324 42.195782 13.907351 11.276023 -59.033491 52.816549 -59.195441 4.240790 12.642661 -20.389548 
